<?xml version="1.0" encoding="utf-8"?>
<!-- Generator: Adobe Illustrator 24.2.0, SVG Export Plug-In . SVG Version: 6.00 Build 0)  -->
<svg version="1.1" id="Layer_1" xmlns="http://www.w3.org/2000/svg" xmlns:xlink="http://www.w3.org/1999/xlink" x="0px" y="0px"
	 viewBox="0 0 486.3 74.7" style="enable-background:new 0 0 486.3 74.7;" xml:space="preserve">
<style type="text/css">
	.st0{fill:#EF3D25;}
	.st1{fill:#038141;}
	.st2{fill:#21335C;}
	.st3{fill:#365DAB;}
	.st4{fill:#FCEE25;}
</style>
<g>
	<g>
		<path class="st0" d="M58.3,35.8V21.1c0-4.5-3.7-8.2-8.2-8.2h-0.2l-7.2,7.2L58.3,35.8z"/>
		<path class="st0" d="M15.4,20.1l-7.2-7.2c-4.5,0-8.2,3.7-8.2,8.2v14.5L15.4,20.1z"/>
		<path class="st1" d="M19.4,24.1L0,43.6V55l25-25.2L19.4,24.1z"/>
		<path class="st1" d="M38.7,24.1L33,29.7l25.4,25.4V43.7L38.7,24.1z"/>
		<path class="st2" d="M29.1,33.7L9.5,53.4c-4,4-2.8,10.7,2.3,13.1l17.4,8.2l17.3-8.1c5.1-2.3,6.2-9,2.3-13.1L29.1,33.7z"/>
		<path class="st3" d="M29,0L16.1,12.9L29,25.7l12.9-12.9L29,0z"/>
		<path class="st4" d="M31.7,13.7l0.6,3.4l-3.1-1.6l-3.1,1.7l0.5-3.6L24,11.3l3.6-0.6L29,7.4l1.7,3.1l3.6,0.5L31.7,13.7z"/>
	</g>
	<g>
		<path class="st2" d="M113.6,42.8H93.3c0.2,2.3,1,4.1,2.2,5.2c1.2,1.2,2.8,1.8,4.9,1.8c3,0,5.1-1.3,6.2-3.9h6.4
			c-0.7,2.8-2.2,5-4.4,6.6c-2.2,1.6-5,2.4-8.2,2.4c-4,0-7.3-1.3-9.8-3.9c-2.5-2.6-3.7-6-3.7-10.3c0-4.3,1.2-7.7,3.7-10.3
			c2.5-2.6,5.7-3.9,9.7-3.9c4.1,0,7.4,1.4,9.8,4.1s3.6,6.2,3.6,10.6V42.8z M93.4,38.1H107c-0.3-2-1-3.6-2.2-4.7
			c-1.2-1.2-2.7-1.7-4.6-1.7C96.3,31.7,94,33.8,93.4,38.1z"/>
		<path class="st2" d="M120.9,51.7c-2.8-2.3-4.2-5.5-4.2-9.8h7c0,2.7,0.8,4.6,2.4,5.7c1.6,1.2,3.9,1.7,6.9,1.7
			c2.5,0,4.3-0.5,5.6-1.4c1.3-0.9,1.9-2.3,1.9-4c0-1.5-0.6-2.6-1.7-3.4c-1.1-0.8-3.1-1.5-6-2.1l-3.2-0.6c-8-1.5-12.1-5.3-12.1-11.4
			c0-3.2,1.2-5.8,3.7-7.7c2.5-1.9,5.9-2.9,10.2-2.9c5,0,8.7,1.1,11.2,3.2c2.5,2.1,3.9,5.1,4,8.8h-6.9c-0.1-2.1-0.9-3.7-2.1-4.7
			c-1.3-1-3.3-1.5-6.1-1.5c-2.2,0-3.8,0.4-5,1.2c-1.2,0.8-1.7,1.9-1.7,3.4c0,1.5,0.5,2.7,1.6,3.5c1.1,0.8,3,1.5,5.7,2.1l3.3,0.6
			c4.4,0.9,7.6,2.2,9.5,3.9c1.9,1.7,2.9,4.1,2.9,7.2c0,3.7-1.3,6.5-4,8.5c-2.7,2-6.4,3-11.2,3C127.6,55.1,123.7,54,120.9,51.7z"/>
		<path class="st2" d="M178.4,42.8H158c0.2,2.3,1,4.1,2.2,5.2c1.2,1.2,2.8,1.8,4.9,1.8c3,0,5.1-1.3,6.2-3.9h6.4
			c-0.7,2.8-2.2,5-4.4,6.6c-2.2,1.6-5,2.4-8.2,2.4c-4,0-7.3-1.3-9.8-3.9c-2.5-2.6-3.7-6-3.7-10.3c0-4.3,1.2-7.7,3.7-10.3
			c2.5-2.6,5.7-3.9,9.7-3.9c4.1,0,7.4,1.4,9.8,4.1s3.6,6.2,3.6,10.6V42.8z M158.1,38.1h13.6c-0.3-2-1-3.6-2.2-4.7
			c-1.2-1.2-2.7-1.7-4.6-1.7C161,31.7,158.7,33.8,158.1,38.1z"/>
		<path class="st2" d="M199,26.8v6.1h-1.7c-2.5,0-4.5,0.6-5.8,1.9s-2,3.2-2,5.7v13.8h-6.6V27.1h6.4V32c1.5-3.5,4.2-5.3,8.1-5.3
			C198,26.7,198.5,26.7,199,26.8z"/>
		<path class="st2" d="M221.7,27.1h6.9l-10.1,27.2h-7.6l-10.1-27.2h7.1l2.6,7.3c1.2,3.8,2.7,8.4,4.3,13.8c1.3-4.4,2.7-9,4.3-13.9
			L221.7,27.1z"/>
		<path class="st2" d="M231.4,54.3V27.1h6.6v27.2H231.4z M231.4,23.6v-6.2h6.5v6.2H231.4z"/>
		<path class="st2" d="M246,51c-2.5-2.6-3.7-6-3.7-10.3c0-4.4,1.2-7.8,3.7-10.4c2.4-2.6,5.7-3.8,9.7-3.8c3.5,0,6.4,0.9,8.7,2.8
			c2.2,1.9,3.6,4.4,3.9,7.6h-6.6c-0.3-1.6-1-2.8-2.1-3.6c-1.1-0.8-2.4-1.3-3.9-1.3c-2.1,0-3.7,0.7-4.9,2.2s-1.8,3.6-1.8,6.5
			s0.6,5,1.8,6.5c1.2,1.5,2.8,2.2,4.8,2.2c1.6,0,3-0.4,4.1-1.3c1.1-0.9,1.8-2.2,2-3.9h6.6c-0.4,3.3-1.7,5.9-4,7.8
			c-2.3,1.9-5.2,2.9-8.7,2.9C251.8,54.9,248.5,53.6,246,51z"/>
		<path class="st2" d="M298.1,42.8h-20.3c0.2,2.3,1,4.1,2.2,5.2c1.2,1.2,2.8,1.8,4.9,1.8c3,0,5.1-1.3,6.2-3.9h6.4
			c-0.7,2.8-2.2,5-4.4,6.6c-2.2,1.6-5,2.4-8.2,2.4c-4,0-7.3-1.3-9.8-3.9c-2.5-2.6-3.7-6-3.7-10.3c0-4.3,1.2-7.7,3.7-10.3
			c2.5-2.6,5.7-3.9,9.7-3.9c4.1,0,7.4,1.4,9.8,4.1c2.4,2.7,3.6,6.2,3.6,10.6V42.8z M277.9,38.1h13.6c-0.3-2-1-3.6-2.2-4.7
			c-1.2-1.2-2.7-1.7-4.6-1.7C280.8,31.7,278.5,33.8,277.9,38.1z"/>
		<path class="st2" d="M300.8,45.7h6.5c0.2,1.7,0.7,2.9,1.7,3.6c0.9,0.7,2.4,1.1,4.4,1.1c3.6,0,5.4-1.1,5.4-3.3c0-1-0.4-1.7-1.2-2.3
			s-2.2-1-4.2-1.3l-3.1-0.5c-5.9-1-8.9-3.7-8.9-8.2c0-2.6,1-4.6,2.9-6s4.7-2.2,8.3-2.2c7.8,0,11.8,3.1,12,9.2h-6.3
			c-0.1-1.6-0.6-2.8-1.5-3.4c-0.9-0.7-2.4-1-4.2-1c-3.2,0-4.7,1.1-4.7,3.2c0,0.9,0.4,1.6,1.1,2.1c0.7,0.5,1.9,0.9,3.5,1.2l3.4,0.5
			c3.3,0.6,5.7,1.5,7.2,2.8c1.5,1.3,2.2,3.1,2.2,5.4c0,2.7-1.1,4.8-3.2,6.3s-5.1,2.2-8.9,2.2C305.3,55,301.2,51.9,300.8,45.7z"/>
		<path class="st0" d="M328.4,54.3v-7.5h7.7v7.5H328.4z"/>
		<path class="st2" d="M359.2,27.1h6.4v26.3c0,3.7-1.2,6.6-3.5,8.7c-2.3,2.1-5.6,3.2-9.9,3.2c-3.8,0-6.8-0.8-8.9-2.5
			c-2.2-1.7-3.3-4-3.6-7h6.5c0.3,2.9,2.3,4.4,6.1,4.4c2.2,0,3.8-0.6,5-1.7c1.1-1.1,1.7-2.8,1.7-4.9v-3.4c-2,2.7-4.7,4.1-8.3,4.1
			c-3.7,0-6.7-1.3-8.9-3.8c-2.2-2.5-3.4-5.8-3.4-10c0-4.2,1.1-7.6,3.4-10.1c2.2-2.5,5.2-3.8,8.8-3.8c3.8,0,6.7,1.5,8.6,4.4V27.1z
			 M357.3,46.5c1.2-1.5,1.8-3.5,1.8-6.2s-0.6-4.7-1.8-6.2s-2.9-2.2-5.2-2.2c-2.1,0-3.8,0.7-5.1,2.2s-1.9,3.6-1.9,6.2
			c0,2.6,0.6,4.6,1.9,6.1c1.2,1.5,2.9,2.2,5.1,2.2C354.3,48.7,356,48,357.3,46.5z"/>
		<path class="st2" d="M383.8,54.9c-4.1,0-7.5-1.3-10-3.9c-2.6-2.6-3.8-6-3.8-10.3c0-4.3,1.3-7.8,3.8-10.3c2.5-2.6,5.9-3.9,10-3.9
			s7.5,1.3,10,3.8c2.5,2.6,3.8,6,3.8,10.4c0,4.3-1.3,7.7-3.8,10.3C391.3,53.6,388,54.9,383.8,54.9z M389,47.2
			c1.2-1.5,1.9-3.7,1.9-6.5s-0.6-4.9-1.9-6.5c-1.2-1.5-3-2.3-5.2-2.3c-2.2,0-3.9,0.8-5.2,2.3s-1.9,3.7-1.9,6.5s0.6,5,1.9,6.5
			c1.2,1.5,3,2.3,5.2,2.3C386,49.4,387.8,48.7,389,47.2z"/>
		<path class="st2" d="M419,27.1h6.9l-10.1,27.2h-7.6l-10.1-27.2h7.1l2.6,7.3c1.2,3.8,2.7,8.4,4.3,13.8c1.3-4.4,2.7-9,4.3-13.9
			L419,27.1z"/>
		<path class="st0" d="M423.7,54.3v-7.5h7.7v7.5H423.7z"/>
		<path class="st2" d="M434.6,45.7h6.5c0.2,1.7,0.7,2.9,1.7,3.6c0.9,0.7,2.4,1.1,4.4,1.1c3.6,0,5.4-1.1,5.4-3.3c0-1-0.4-1.7-1.2-2.3
			s-2.2-1-4.2-1.3l-3.1-0.5c-5.9-1-8.9-3.7-8.9-8.2c0-2.6,1-4.6,2.9-6s4.7-2.2,8.3-2.2c7.8,0,11.8,3.1,12,9.2h-6.3
			c-0.1-1.6-0.6-2.8-1.5-3.4c-0.9-0.7-2.4-1-4.2-1c-3.2,0-4.7,1.1-4.7,3.2c0,0.9,0.4,1.6,1.1,2.1c0.7,0.5,1.9,0.9,3.5,1.2l3.4,0.5
			c3.3,0.6,5.7,1.5,7.2,2.8c1.5,1.3,2.2,3.1,2.2,5.4c0,2.7-1.1,4.8-3.2,6.3s-5.1,2.2-8.9,2.2C439.1,55,435,51.9,434.6,45.7z"/>
		<path class="st2" d="M461.9,45.7h6.5c0.2,1.7,0.7,2.9,1.7,3.6c0.9,0.7,2.4,1.1,4.4,1.1c3.6,0,5.4-1.1,5.4-3.3c0-1-0.4-1.7-1.2-2.3
			s-2.2-1-4.2-1.3l-3.1-0.5c-5.9-1-8.9-3.7-8.9-8.2c0-2.6,1-4.6,2.9-6s4.7-2.2,8.3-2.2c7.8,0,11.8,3.1,12,9.2h-6.3
			c-0.1-1.6-0.6-2.8-1.5-3.4c-0.9-0.7-2.4-1-4.2-1c-3.2,0-4.7,1.1-4.7,3.2c0,0.9,0.4,1.6,1.1,2.1c0.7,0.5,1.9,0.9,3.5,1.2l3.4,0.5
			c3.3,0.6,5.7,1.5,7.2,2.8c1.5,1.3,2.2,3.1,2.2,5.4c0,2.7-1.1,4.8-3.2,6.3s-5.1,2.2-8.9,2.2C466.4,55,462.2,51.9,461.9,45.7z"/>
	</g>
</g>
</svg>
